<?xml version="1.0" encoding="utf-8"?>
<svg width="24" height="24" viewBox="0 0 24 24" fill="none" xmlns="http://www.w3.org/2000/svg">
  <path
    d="M19.3295 6.82945L21.5 9L16 3.5L19.3295 6.82945ZM7 2C7 2 14 2 17 2C20 2 23 4.49995 23 8C23 11.5001 23 18 23 18C23 18.5304 22.7893 19.0391 22.4142 19.4142C22.0391 19.7893 21.5304 20 21 20H7C6.46957 20 5.96086 19.7893 5.58579 19.4142C5.21071 19.0391 5 18.5304 5 18V4C5 3.46957 5.21071 2.96086 5.58579 2.58579C5.96086 2.21071 6.46957 2 7 2ZM3 6V22H21V24H3C2.46957 24 1.96086 23.7893 1.58579 23.4142C1.21071 23.0391 1 22.5304 1 22V6H3Z"
    fill="white" />
  <path
    d="M10.1416 7.76H12.3496V9.184C12.6909 8.61867 13.0856 8.20267 13.5336 7.936C13.9816 7.66933 14.5042 7.536 15.1016 7.536C15.9869 7.536 16.6802 7.80267 17.1816 8.336C17.6829 8.85867 17.9336 9.58933 17.9336 10.528V16H15.6776V10.88C15.6776 10.4533 15.5709 10.1227 15.3576 9.888C15.1442 9.64267 14.8562 9.52 14.4936 9.52C14.0669 9.52 13.6616 9.68 13.2776 10C12.8936 10.32 12.6002 10.7253 12.3976 11.216V16H10.1416V7.76Z"
    fill="black" />
</svg>